<svg width="500" height="400" viewBox="0 0 500 400" xmlns="http://www.w3.org/2000/svg">
  <defs>
    <linearGradient id="aboutGradient1" x1="0%" y1="0%" x2="100%" y2="100%">
      <stop offset="0%" style="stop-color:#6366f1;stop-opacity:0.2" />
      <stop offset="100%" style="stop-color:#8b5cf6;stop-opacity:0.2" />
    </linearGradient>
    <linearGradient id="aboutGradient2" x1="0%" y1="0%" x2="100%" y2="100%">
      <stop offset="0%" style="stop-color:#f59e0b;stop-opacity:0.2" />
      <stop offset="100%" style="stop-color:#f97316;stop-opacity:0.2" />
    </linearGradient>
  </defs>
  
  <!-- Background elements -->
  <circle cx="100" cy="100" r="60" fill="url(#aboutGradient1)" opacity="0.4"/>
  <circle cx="400" cy="120" r="50" fill="url(#aboutGradient2)" opacity="0.4"/>
  
  <!-- Team collaboration illustration -->
  <!-- Person 1 -->
  <circle cx="150" cy="200" r="25" fill="#6366f1" opacity="0.8"/>
  <rect x="140" y="230" width="20" height="40" rx="10" fill="#6366f1" opacity="0.8"/>
  
  <!-- Person 2 -->
  <circle cx="250" cy="180" r="25" fill="#f59e0b" opacity="0.8"/>
  <rect x="240" y="210" width="20" height="40" rx="10" fill="#f59e0b" opacity="0.8"/>
  
  <!-- Person 3 -->
  <circle cx="350" cy="200" r="25" fill="#10b981" opacity="0.8"/>
  <rect x="340" y="230" width="20" height="40" rx="10" fill="#10b981" opacity="0.8"/>
  
  <!-- Connection lines between team members -->
  <line x1="175" y1="200" x2="225" y2="180" stroke="#6366f1" stroke-width="2" stroke-dasharray="3,3" opacity="0.6"/>
  <line x1="275" y1="180" x2="325" y2="200" stroke="#f59e0b" stroke-width="2" stroke-dasharray="3,3" opacity="0.6"/>
  
  <!-- Success indicators -->
  <!-- Trophy -->
  <rect x="200" y="100" width="100" height="80" rx="10" fill="#f8fafc" stroke="#e5e7eb" stroke-width="2"/>
  <circle cx="250" cy="130" r="15" fill="#f59e0b"/>
  <rect x="245" y="145" width="10" height="25" fill="#f59e0b"/>
  <rect x="240" y="170" width="20" height="5" fill="#f59e0b"/>
  
  <!-- Growth chart -->
  <rect x="50" y="300" width="150" height="80" rx="8" fill="#f8fafc" stroke="#e5e7eb" stroke-width="2"/>
  <line x1="70" y1="360" x2="70" y2="320" stroke="#6366f1" stroke-width="2"/>
  <line x1="70" y1="360" x2="180" y2="360" stroke="#6366f1" stroke-width="2"/>
  <polyline points="70,340 90,330 110,335 130,325 150,330 170,320" 
            fill="none" stroke="#6366f1" stroke-width="3" stroke-linecap="round" stroke-linejoin="round"/>
  
  <!-- Target/Goal -->
  <circle cx="350" cy="320" r="30" fill="none" stroke="#8b5cf6" stroke-width="3"/>
  <circle cx="350" cy="320" r="20" fill="none" stroke="#8b5cf6" stroke-width="2"/>
  <circle cx="350" cy="320" r="10" fill="none" stroke="#8b5cf6" stroke-width="2"/>
  <circle cx="350" cy="320" r="3" fill="#8b5cf6"/>
  
  <!-- Floating success elements -->
  <circle cx="80" cy="80" r="4" fill="#6366f1" opacity="0.7"/>
  <circle cx="420" cy="90" r="3" fill="#f59e0b" opacity="0.7"/>
  <circle cx="120" cy="350" r="5" fill="#10b981" opacity="0.7"/>
  <circle cx="380" cy="280" r="4" fill="#8b5cf6" opacity="0.7"/>
  
  <!-- Connection lines to success elements -->
  <line x1="150" y1="200" x2="200" y2="140" stroke="#6366f1" stroke-width="1" stroke-dasharray="2,2" opacity="0.4"/>
  <line x1="250" y1="180" x2="200" y2="140" stroke="#f59e0b" stroke-width="1" stroke-dasharray="2,2" opacity="0.4"/>
  <line x1="350" y1="200" x2="350" y2="290" stroke="#10b981" stroke-width="1" stroke-dasharray="2,2" opacity="0.4"/>
</svg> 