<svg width="600" height="400" viewBox="0 0 600 400" xmlns="http://www.w3.org/2000/svg">
  <defs>
    <linearGradient id="heroGradient1" x1="0%" y1="0%" x2="100%" y2="100%">
      <stop offset="0%" style="stop-color:#6366f1;stop-opacity:0.1" />
      <stop offset="100%" style="stop-color:#8b5cf6;stop-opacity:0.1" />
    </linearGradient>
    <linearGradient id="heroGradient2" x1="0%" y1="0%" x2="100%" y2="100%">
      <stop offset="0%" style="stop-color:#f59e0b;stop-opacity:0.1" />
      <stop offset="100%" style="stop-color:#f97316;stop-opacity:0.1" />
    </linearGradient>
    <linearGradient id="heroGradient3" x1="0%" y1="0%" x2="100%" y2="100%">
      <stop offset="0%" style="stop-color:#10b981;stop-opacity:0.1" />
      <stop offset="100%" style="stop-color:#059669;stop-opacity:0.1" />
    </linearGradient>
  </defs>
  
  <!-- Background shapes -->
  <circle cx="100" cy="100" r="80" fill="url(#heroGradient1)" opacity="0.3"/>
  <circle cx="500" cy="150" r="60" fill="url(#heroGradient2)" opacity="0.3"/>
  <circle cx="450" cy="300" r="70" fill="url(#heroGradient3)" opacity="0.3"/>
  
  <!-- Digital marketing elements -->
  <!-- Chart/Graph -->
  <rect x="50" y="200" width="200" height="120" rx="10" fill="#f8fafc" stroke="#e5e7eb" stroke-width="2"/>
  <line x1="70" y1="280" x2="70" y2="220" stroke="#6366f1" stroke-width="2"/>
  <line x1="70" y1="280" x2="230" y2="280" stroke="#6366f1" stroke-width="2"/>
  <polyline points="70,250 90,240 110,260 130,230 150,245 170,220 190,235 210,210 230,225" 
            fill="none" stroke="#6366f1" stroke-width="3" stroke-linecap="round" stroke-linejoin="round"/>
  
  <!-- Search icon -->
  <circle cx="400" cy="120" r="30" fill="none" stroke="#f59e0b" stroke-width="3"/>
  <line x1="420" y1="140" x2="440" y2="160" stroke="#f59e0b" stroke-width="3" stroke-linecap="round"/>
  
  <!-- Social media icons -->
  <rect x="350" y="250" width="40" height="40" rx="8" fill="#10b981" opacity="0.8"/>
  <circle cx="370" cy="270" r="8" fill="white"/>
  <circle cx="370" cy="270" r="3" fill="#10b981"/>
  
  <!-- Target/Goal icon -->
  <circle cx="480" cy="200" r="25" fill="none" stroke="#8b5cf6" stroke-width="3"/>
  <circle cx="480" cy="200" r="15" fill="none" stroke="#8b5cf6" stroke-width="2"/>
  <circle cx="480" cy="200" r="5" fill="#8b5cf6"/>
  
  <!-- Connection lines -->
  <line x1="250" y1="260" x2="350" y2="270" stroke="#6366f1" stroke-width="2" stroke-dasharray="5,5" opacity="0.6"/>
  <line x1="370" y1="290" x2="480" y2="200" stroke="#10b981" stroke-width="2" stroke-dasharray="5,5" opacity="0.6"/>
  <line x1="480" y1="175" x2="400" y2="120" stroke="#8b5cf6" stroke-width="2" stroke-dasharray="5,5" opacity="0.6"/>
  
  <!-- Floating elements -->
  <circle cx="150" cy="80" r="8" fill="#6366f1" opacity="0.7"/>
  <circle cx="450" cy="100" r="6" fill="#f59e0b" opacity="0.7"/>
  <circle cx="180" cy="320" r="5" fill="#10b981" opacity="0.7"/>
  <circle cx="520" cy="250" r="7" fill="#8b5cf6" opacity="0.7"/>
</svg> 